<mxfile host="app.diagrams.net" agent="Mozilla/5.0 (Windows NT 10.0; Win64; x64) AppleWebKit/537.36 (KHTML, like Gecko) Chrome/128.0.0.0 Safari/537.36" version="24.7.8">
  <diagram name="หน้า-1" id="o-6D3J73pR6RaQOBwfJc">
    <mxGraphModel dx="1715" dy="826" grid="1" gridSize="10" guides="1" tooltips="1" connect="1" arrows="1" fold="1" page="1" pageScale="1" pageWidth="827" pageHeight="1169" math="0" shadow="0">
      <root>
        <mxCell id="0" />
        <mxCell id="1" parent="0" />
        <mxCell id="PPnZ5WB4s9gt6qt1VxBj-3" style="edgeStyle=orthogonalEdgeStyle;rounded=0;orthogonalLoop=1;jettySize=auto;html=1;exitX=0.5;exitY=1;exitDx=0;exitDy=0;" edge="1" parent="1" source="PPnZ5WB4s9gt6qt1VxBj-1" target="PPnZ5WB4s9gt6qt1VxBj-2">
          <mxGeometry relative="1" as="geometry" />
        </mxCell>
        <mxCell id="PPnZ5WB4s9gt6qt1VxBj-1" value="Start" style="ellipse;whiteSpace=wrap;html=1;" vertex="1" parent="1">
          <mxGeometry x="369" y="60" width="90" height="60" as="geometry" />
        </mxCell>
        <mxCell id="PPnZ5WB4s9gt6qt1VxBj-12" style="edgeStyle=orthogonalEdgeStyle;rounded=0;orthogonalLoop=1;jettySize=auto;html=1;exitX=0.5;exitY=1;exitDx=0;exitDy=0;entryX=0.5;entryY=0;entryDx=0;entryDy=0;" edge="1" parent="1" source="PPnZ5WB4s9gt6qt1VxBj-2" target="PPnZ5WB4s9gt6qt1VxBj-10">
          <mxGeometry relative="1" as="geometry" />
        </mxCell>
        <mxCell id="PPnZ5WB4s9gt6qt1VxBj-2" value="เซ็นเซอร์พร้อมใช้งาน" style="rounded=0;whiteSpace=wrap;html=1;" vertex="1" parent="1">
          <mxGeometry x="354" y="150" width="120" height="60" as="geometry" />
        </mxCell>
        <mxCell id="PPnZ5WB4s9gt6qt1VxBj-14" style="edgeStyle=orthogonalEdgeStyle;rounded=0;orthogonalLoop=1;jettySize=auto;html=1;exitX=0.5;exitY=1;exitDx=0;exitDy=0;entryX=0.5;entryY=0;entryDx=0;entryDy=0;" edge="1" parent="1" source="PPnZ5WB4s9gt6qt1VxBj-4" target="PPnZ5WB4s9gt6qt1VxBj-6">
          <mxGeometry relative="1" as="geometry" />
        </mxCell>
        <mxCell id="PPnZ5WB4s9gt6qt1VxBj-4" value="ตรวจสอบการสั่นสะเทือน" style="rounded=0;whiteSpace=wrap;html=1;" vertex="1" parent="1">
          <mxGeometry x="354" y="260" width="120" height="60" as="geometry" />
        </mxCell>
        <mxCell id="PPnZ5WB4s9gt6qt1VxBj-15" style="edgeStyle=orthogonalEdgeStyle;rounded=0;orthogonalLoop=1;jettySize=auto;html=1;exitX=1;exitY=0.5;exitDx=0;exitDy=0;entryX=0.5;entryY=0;entryDx=0;entryDy=0;" edge="1" parent="1" source="PPnZ5WB4s9gt6qt1VxBj-6" target="PPnZ5WB4s9gt6qt1VxBj-8">
          <mxGeometry relative="1" as="geometry" />
        </mxCell>
        <mxCell id="PPnZ5WB4s9gt6qt1VxBj-19" style="edgeStyle=orthogonalEdgeStyle;rounded=0;orthogonalLoop=1;jettySize=auto;html=1;exitX=0.5;exitY=1;exitDx=0;exitDy=0;entryX=0.5;entryY=0;entryDx=0;entryDy=0;" edge="1" parent="1" source="PPnZ5WB4s9gt6qt1VxBj-6" target="PPnZ5WB4s9gt6qt1VxBj-18">
          <mxGeometry relative="1" as="geometry" />
        </mxCell>
        <mxCell id="PPnZ5WB4s9gt6qt1VxBj-6" value="&amp;nbsp;การสั่นสะเทือนเกิดขึ้นหรือไม่?" style="rounded=0;whiteSpace=wrap;html=1;" vertex="1" parent="1">
          <mxGeometry x="354" y="340" width="120" height="60" as="geometry" />
        </mxCell>
        <mxCell id="PPnZ5WB4s9gt6qt1VxBj-16" style="edgeStyle=orthogonalEdgeStyle;rounded=0;orthogonalLoop=1;jettySize=auto;html=1;exitX=0.5;exitY=1;exitDx=0;exitDy=0;entryX=0.5;entryY=0;entryDx=0;entryDy=0;" edge="1" parent="1" source="PPnZ5WB4s9gt6qt1VxBj-8" target="PPnZ5WB4s9gt6qt1VxBj-9">
          <mxGeometry relative="1" as="geometry" />
        </mxCell>
        <mxCell id="PPnZ5WB4s9gt6qt1VxBj-8" value="ไม่มีการสั่นสะเทือน" style="rounded=0;whiteSpace=wrap;html=1;" vertex="1" parent="1">
          <mxGeometry x="540" y="390" width="120" height="60" as="geometry" />
        </mxCell>
        <mxCell id="PPnZ5WB4s9gt6qt1VxBj-17" style="edgeStyle=orthogonalEdgeStyle;rounded=0;orthogonalLoop=1;jettySize=auto;html=1;exitX=0.5;exitY=1;exitDx=0;exitDy=0;entryX=1;entryY=0;entryDx=0;entryDy=0;" edge="1" parent="1" source="PPnZ5WB4s9gt6qt1VxBj-9" target="PPnZ5WB4s9gt6qt1VxBj-10">
          <mxGeometry relative="1" as="geometry">
            <Array as="points">
              <mxPoint x="600" y="600" />
              <mxPoint x="690" y="600" />
              <mxPoint x="690" y="232" />
            </Array>
          </mxGeometry>
        </mxCell>
        <mxCell id="PPnZ5WB4s9gt6qt1VxBj-9" value="กลับไปตรวจสอบใหม่" style="rounded=0;whiteSpace=wrap;html=1;" vertex="1" parent="1">
          <mxGeometry x="540" y="470" width="120" height="60" as="geometry" />
        </mxCell>
        <mxCell id="PPnZ5WB4s9gt6qt1VxBj-13" style="edgeStyle=orthogonalEdgeStyle;rounded=0;orthogonalLoop=1;jettySize=auto;html=1;exitX=0.5;exitY=1;exitDx=0;exitDy=0;entryX=0.5;entryY=0;entryDx=0;entryDy=0;" edge="1" parent="1" source="PPnZ5WB4s9gt6qt1VxBj-10" target="PPnZ5WB4s9gt6qt1VxBj-4">
          <mxGeometry relative="1" as="geometry" />
        </mxCell>
        <mxCell id="PPnZ5WB4s9gt6qt1VxBj-10" value="" style="ellipse;whiteSpace=wrap;html=1;aspect=fixed;" vertex="1" parent="1">
          <mxGeometry x="409" y="230" width="10" height="10" as="geometry" />
        </mxCell>
        <mxCell id="PPnZ5WB4s9gt6qt1VxBj-21" style="edgeStyle=orthogonalEdgeStyle;rounded=0;orthogonalLoop=1;jettySize=auto;html=1;exitX=0.5;exitY=1;exitDx=0;exitDy=0;entryX=0.5;entryY=0;entryDx=0;entryDy=0;" edge="1" parent="1" source="PPnZ5WB4s9gt6qt1VxBj-18" target="PPnZ5WB4s9gt6qt1VxBj-20">
          <mxGeometry relative="1" as="geometry" />
        </mxCell>
        <mxCell id="PPnZ5WB4s9gt6qt1VxBj-18" value="มีการสั่นสะเทือน" style="rounded=0;whiteSpace=wrap;html=1;" vertex="1" parent="1">
          <mxGeometry x="354" y="440" width="120" height="60" as="geometry" />
        </mxCell>
        <mxCell id="PPnZ5WB4s9gt6qt1VxBj-23" style="edgeStyle=orthogonalEdgeStyle;rounded=0;orthogonalLoop=1;jettySize=auto;html=1;exitX=0.5;exitY=1;exitDx=0;exitDy=0;entryX=0.5;entryY=0;entryDx=0;entryDy=0;" edge="1" parent="1" source="PPnZ5WB4s9gt6qt1VxBj-20" target="PPnZ5WB4s9gt6qt1VxBj-22">
          <mxGeometry relative="1" as="geometry" />
        </mxCell>
        <mxCell id="PPnZ5WB4s9gt6qt1VxBj-20" value="บันทึกข้อมูลการสั่นสะเทือน" style="rounded=0;whiteSpace=wrap;html=1;" vertex="1" parent="1">
          <mxGeometry x="354" y="530" width="120" height="60" as="geometry" />
        </mxCell>
        <mxCell id="PPnZ5WB4s9gt6qt1VxBj-25" style="edgeStyle=orthogonalEdgeStyle;rounded=0;orthogonalLoop=1;jettySize=auto;html=1;exitX=0.5;exitY=1;exitDx=0;exitDy=0;entryX=0.5;entryY=0;entryDx=0;entryDy=0;" edge="1" parent="1" source="PPnZ5WB4s9gt6qt1VxBj-22" target="PPnZ5WB4s9gt6qt1VxBj-26">
          <mxGeometry relative="1" as="geometry">
            <mxPoint x="413.9999999999998" y="710" as="targetPoint" />
          </mxGeometry>
        </mxCell>
        <mxCell id="PPnZ5WB4s9gt6qt1VxBj-22" value="ส่งการแจ้งเตือน" style="rounded=0;whiteSpace=wrap;html=1;" vertex="1" parent="1">
          <mxGeometry x="354" y="620" width="120" height="60" as="geometry" />
        </mxCell>
        <mxCell id="PPnZ5WB4s9gt6qt1VxBj-26" value="End" style="ellipse;whiteSpace=wrap;html=1;" vertex="1" parent="1">
          <mxGeometry x="354" y="710" width="120" height="80" as="geometry" />
        </mxCell>
        <mxCell id="PPnZ5WB4s9gt6qt1VxBj-27" value="no" style="text;html=1;align=center;verticalAlign=middle;whiteSpace=wrap;rounded=0;" vertex="1" parent="1">
          <mxGeometry x="500" y="330" width="60" height="30" as="geometry" />
        </mxCell>
        <mxCell id="PPnZ5WB4s9gt6qt1VxBj-28" value="yes" style="text;html=1;align=center;verticalAlign=middle;whiteSpace=wrap;rounded=0;" vertex="1" parent="1">
          <mxGeometry x="409" y="405" width="60" height="30" as="geometry" />
        </mxCell>
      </root>
    </mxGraphModel>
  </diagram>
</mxfile>
